<svg xmlns="http://www.w3.org/2000/svg" xmlns:xlink="http://www.w3.org/1999/xlink" width="1080" zoomAndPan="magnify" viewBox="0 0 810 809.999993" height="1080" preserveAspectRatio="xMidYMid meet" version="1.0"><defs><clipPath id="5ae4a4e39a"><path d="M 106 479 L 715 479 L 715 666 L 106 666 Z M 106 479 " clip-rule="nonzero"/></clipPath></defs><path fill="#6842f4" d="M 260.335938 267.871094 C 261.597656 267.773438 262.863281 267.742188 264.128906 267.738281 L 266.621094 267.726562 L 269.386719 267.722656 L 272.304688 267.710938 C 275.554688 267.699219 278.808594 267.691406 282.0625 267.6875 L 289.027344 267.664062 C 296.019531 267.640625 303.015625 267.625 310.007812 267.613281 L 315.941406 267.601562 C 331.804688 267.570312 347.664062 267.546875 363.527344 267.535156 C 374.964844 267.523438 386.40625 267.492188 397.84375 267.453125 C 409.605469 267.414062 421.363281 267.390625 433.125 267.386719 C 439.722656 267.382812 446.316406 267.371094 452.914062 267.339844 C 459.132812 267.3125 465.355469 267.304688 471.574219 267.316406 C 473.84375 267.316406 476.117188 267.308594 478.386719 267.292969 C 497.753906 267.15625 514.566406 269.660156 531.585938 279.257812 L 533.214844 280.1875 L 536.257812 281.871094 C 540.953125 284.5625 540.953125 284.5625 542.691406 285.871094 L 542.691406 287.765625 L 544.390625 288.09375 C 548.058594 289.183594 550.441406 291.742188 553.113281 294.398438 C 564.890625 307.183594 570.886719 323.421875 575.433594 339.898438 C 578.925781 355.527344 576.867188 374.0625 572.421875 389.265625 C 568.652344 400.378906 563.390625 410.875 555.96875 419.988281 C 554.628906 421.625 554.628906 421.625 553.113281 424.207031 C 552.882812 426.660156 552.882812 426.660156 554.0625 428.945312 C 556.035156 431.648438 556.035156 431.648438 558.503906 434.332031 C 566.851562 443.96875 573.527344 455.417969 576.800781 467.792969 L 577.816406 471.371094 C 582.371094 488.738281 582.117188 506.984375 577.457031 524.328125 C 573.378906 538.058594 566.949219 549.8125 557.105469 560.28125 C 554.921875 562.574219 554.921875 562.574219 552.796875 565.367188 C 550.15625 568.554688 547.097656 570.726562 543.640625 572.964844 L 541.734375 574.199219 C 532.917969 579.808594 524.15625 583.515625 514.03125 586.050781 L 511.707031 586.648438 C 506.65625 587.816406 501.648438 588.359375 496.480469 588.648438 L 494.347656 588.769531 C 486.632812 589.175781 478.929688 589.199219 471.207031 589.179688 L 466.46875 589.179688 C 462.234375 589.179688 458.003906 589.175781 453.769531 589.167969 C 449.324219 589.160156 444.878906 589.160156 440.433594 589.160156 C 432.042969 589.15625 423.648438 589.148438 415.257812 589.140625 C 405.695312 589.128906 396.128906 589.121094 386.5625 589.121094 C 366.914062 589.109375 347.261719 589.09375 327.609375 589.070312 C 328.195312 585.894531 328.777344 583.597656 330.570312 580.898438 L 331.863281 578.914062 L 333.292969 576.753906 C 338.050781 569.410156 342.550781 561.941406 346.945312 554.378906 C 352.015625 545.640625 357.117188 536.929688 362.488281 528.371094 L 363.847656 526.1875 L 365.113281 524.195312 L 366.1875 522.5 C 367.777344 520.351562 369.085938 518.75 371.195312 517.0625 C 373.640625 516.695312 376.101562 516.527344 378.574219 516.558594 L 380.824219 516.535156 C 383.292969 516.511719 385.761719 516.515625 388.230469 516.519531 C 389.980469 516.503906 391.730469 516.492188 393.480469 516.476562 C 398.121094 516.441406 402.761719 516.425781 407.402344 516.417969 C 411.96875 516.40625 416.53125 516.378906 421.09375 516.347656 L 423.804688 516.332031 L 434.644531 516.265625 C 447.34375 516.183594 460.039062 516.085938 472.730469 515.84375 C 474.417969 515.816406 476.101562 515.789062 477.785156 515.769531 C 480.109375 515.738281 482.4375 515.691406 484.761719 515.640625 L 486.800781 515.625 C 491.804688 515.484375 495.519531 514.296875 500.054688 512.324219 C 503.773438 509.355469 506.203125 505.605469 508.523438 501.488281 C 510.527344 495.09375 510.359375 487.667969 509.527344 481.058594 C 508.453125 476.9375 507.125 473.257812 504.792969 469.6875 C 503.230469 468.402344 501.652344 467.136719 500.054688 465.898438 L 500.054688 464 L 496.265625 463.054688 L 496.265625 461.160156 C 482.441406 460.257812 468.671875 460.082031 454.820312 460.105469 L 447.921875 460.105469 C 442.378906 460.105469 436.832031 460.105469 431.285156 460.113281 C 424.820312 460.121094 418.355469 460.125 411.890625 460.121094 C 400.367188 460.125 388.84375 460.132812 377.320312 460.140625 C 366.136719 460.148438 354.953125 460.15625 343.773438 460.160156 L 341.675781 460.160156 L 331.265625 460.164062 C 302.570312 460.175781 273.875 460.191406 245.175781 460.210938 C 245.945312 455.851562 247.53125 452.246094 249.515625 448.316406 L 250.554688 446.222656 C 251.675781 443.972656 252.808594 441.730469 253.941406 439.484375 L 255.113281 437.15625 C 261.054688 425.332031 267.246094 413.699219 273.921875 402.269531 C 275.675781 399.265625 277.410156 396.253906 279.144531 393.238281 C 281.585938 389 284.027344 384.765625 286.476562 380.535156 C 289.691406 374.972656 292.878906 369.394531 296.039062 363.800781 C 297.289062 361.671875 297.289062 361.671875 298.238281 360.722656 C 300.417969 360.664062 302.601562 360.671875 304.78125 360.703125 L 306.851562 360.730469 C 309.125 360.761719 311.394531 360.800781 313.667969 360.839844 L 318.378906 360.90625 C 322.519531 360.96875 326.664062 361.03125 330.804688 361.097656 C 335.027344 361.164062 339.25 361.226562 343.472656 361.289062 C 351.765625 361.410156 360.058594 361.539062 368.351562 361.671875 C 367.78125 364.699219 367.207031 367.140625 365.679688 369.824219 L 364.625 371.6875 L 363.496094 373.632812 L 362.347656 375.648438 C 359.519531 380.550781 356.539062 385.355469 353.394531 390.058594 L 352.242188 391.992188 L 352.242188 393.886719 L 355.085938 392.941406 C 356.824219 392.847656 358.5625 392.8125 360.296875 392.808594 C 361.382812 392.804688 362.464844 392.800781 363.582031 392.792969 L 367.191406 392.789062 C 368.457031 392.785156 369.722656 392.78125 370.988281 392.777344 C 373.710938 392.765625 376.441406 392.757812 379.167969 392.75 C 383.484375 392.742188 387.800781 392.722656 392.117188 392.699219 C 404.394531 392.640625 416.671875 392.589844 428.945312 392.558594 C 435.726562 392.542969 442.503906 392.515625 449.285156 392.476562 C 452.871094 392.453125 456.453125 392.441406 460.039062 392.4375 C 463.417969 392.4375 466.792969 392.421875 470.171875 392.398438 C 471.988281 392.390625 473.808594 392.390625 475.628906 392.394531 C 483.066406 392.324219 489.210938 391.449219 495.777344 387.863281 L 497.507812 386.542969 L 499.273438 385.253906 C 501.742188 382.695312 503.542969 380.148438 504.792969 376.832031 C 505.34375 373.382812 505.363281 370.015625 505.324219 366.527344 L 505.394531 363.824219 C 505.382812 359.066406 504.863281 355.480469 502.625 351.242188 C 501.25 348.910156 500.179688 347.550781 497.996094 345.917969 L 496.265625 344.617188 L 496.265625 342.722656 L 488.683594 340.828125 L 488.683594 338.933594 L 485.019531 339.394531 C 477.382812 340.152344 469.714844 340.042969 462.046875 340.0625 L 456.859375 340.085938 C 451.21875 340.109375 445.574219 340.125 439.933594 340.136719 L 434.089844 340.152344 C 425.988281 340.175781 417.890625 340.191406 409.789062 340.203125 C 398.203125 340.21875 386.613281 340.25 375.023438 340.304688 C 366.863281 340.339844 358.699219 340.359375 350.535156 340.363281 C 345.664062 340.367188 340.792969 340.378906 335.921875 340.410156 C 331.347656 340.4375 326.769531 340.445312 322.195312 340.433594 C 320.515625 340.433594 318.839844 340.441406 317.160156 340.457031 C 314.867188 340.476562 312.578125 340.472656 310.285156 340.457031 L 308.277344 340.496094 C 306.398438 340.464844 306.398438 340.464844 302.972656 339.878906 C 298.933594 337.417969 296.339844 334.125 294.03125 330.039062 L 292.351562 327.105469 L 290.65625 324.070312 L 287.28125 318.136719 L 285.628906 315.210938 C 283.6875 311.8125 281.679688 308.457031 279.65625 305.109375 C 277.257812 301.132812 274.917969 297.117188 272.574219 293.109375 C 270.542969 289.640625 268.484375 286.1875 266.390625 282.753906 L 265.207031 280.808594 C 264.464844 279.59375 263.71875 278.382812 262.96875 277.175781 C 259.746094 271.886719 259.746094 271.886719 259.390625 268.816406 Z M 260.335938 267.871094 " fill-opacity="1" fill-rule="nonzero"/><g clip-path="url(#5ae4a4e39a)"><path fill="#6842f4" d="M 292.507812 479.875 L 295.972656 479.878906 L 297.886719 479.875 C 299.976562 479.871094 302.066406 479.878906 304.15625 479.890625 L 308.511719 479.890625 C 311.558594 479.894531 314.601562 479.902344 317.648438 479.914062 C 321.550781 479.929688 325.449219 479.933594 329.351562 479.933594 C 332.351562 479.933594 335.351562 479.9375 338.351562 479.945312 C 339.789062 479.949219 341.226562 479.949219 342.664062 479.953125 C 344.675781 479.953125 346.6875 479.960938 348.699219 479.972656 L 352.167969 479.984375 C 354.589844 480.085938 356.574219 480.339844 358.875 481.058594 C 358.320312 485.015625 356.984375 487.75 354.917969 491.152344 L 353.035156 494.296875 L 352.027344 495.945312 C 350.277344 498.824219 348.550781 501.714844 346.820312 504.605469 L 345.769531 506.359375 C 341.3125 513.785156 337.046875 521.324219 332.777344 528.859375 C 331.339844 531.375 329.894531 533.886719 328.4375 536.394531 C 323.804688 544.402344 319.300781 552.417969 315.238281 560.734375 C 312.792969 565.722656 310.171875 570.597656 307.476562 575.453125 L 306.289062 577.59375 C 304.082031 581.542969 301.828125 585.398438 299.183594 589.070312 C 296.417969 590.457031 293.988281 590.132812 290.898438 590.128906 L 288.910156 590.128906 C 286.734375 590.128906 284.5625 590.117188 282.386719 590.113281 L 277.871094 590.109375 C 273.90625 590.105469 269.9375 590.097656 265.972656 590.085938 C 261.929688 590.074219 257.882812 590.070312 253.835938 590.066406 C 245.898438 590.054688 237.957031 590.039062 230.015625 590.019531 C 230.640625 585.859375 231.523438 582.820312 233.558594 579.125 L 235.1875 576.136719 L 236.945312 572.964844 L 239.675781 567.972656 C 240.597656 566.285156 241.523438 564.601562 242.453125 562.917969 C 244.992188 558.316406 247.511719 553.710938 250.03125 549.101562 L 251.429688 546.550781 C 254.789062 540.390625 258.054688 534.1875 261.285156 527.957031 C 268.289062 514.464844 275.40625 501.019531 283.136719 487.925781 L 284.164062 486.164062 C 286.410156 482.425781 287.9375 480.257812 292.507812 479.875 M 107.789062 691.402344 C 109.222656 691.304688 110.65625 691.253906 112.089844 691.25 L 114.875 691.222656 L 117.917969 691.210938 L 121.054688 691.195312 C 123.261719 691.183594 125.46875 691.179688 127.671875 691.175781 C 131 691.164062 134.324219 691.136719 137.648438 691.105469 C 164.902344 690.976562 164.902344 690.976562 177.074219 696.792969 C 180.933594 699.148438 183.800781 701.640625 186.289062 705.429688 C 188.660156 709.949219 190.125 714.300781 190.3125 719.425781 C 190.023438 724.121094 189.007812 728.191406 186.71875 732.3125 C 184.570312 735.316406 181.972656 737.746094 178.851562 739.722656 C 176.75 740.351562 176.75 740.351562 175.0625 740.671875 L 176.007812 742.566406 C 177.488281 743.320312 178.992188 744.027344 180.507812 744.699219 C 183.578125 746.191406 186.042969 747.480469 188.269531 750.089844 C 191.605469 755.042969 193.667969 759.277344 194.164062 765.238281 C 194.410156 771.253906 193.367188 776.753906 191.167969 782.363281 C 187.980469 788.125 183.445312 792.160156 177.902344 795.625 C 168.585938 800.550781 158.324219 800.640625 148.015625 800.550781 L 144.429688 800.542969 C 141.320312 800.53125 138.207031 800.515625 135.097656 800.496094 C 131.910156 800.476562 128.71875 800.464844 125.53125 800.457031 C 119.300781 800.433594 113.070312 800.40625 106.839844 800.363281 C 106.820312 786.296875 106.804688 772.230469 106.792969 758.164062 C 106.789062 751.632812 106.78125 745.101562 106.769531 738.570312 C 106.761719 732.273438 106.753906 725.976562 106.75 719.679688 C 106.75 717.269531 106.746094 714.863281 106.742188 712.453125 C 106.734375 709.09375 106.734375 705.734375 106.734375 702.371094 L 106.722656 699.320312 L 106.726562 696.566406 L 106.726562 694.152344 L 106.839844 692.347656 Z M 131.476562 711.300781 L 131.476562 735.933594 C 145.359375 736.425781 145.359375 736.425781 158.953125 734.039062 C 162.097656 732.238281 162.097656 732.238281 163.691406 729.300781 C 164.546875 726.710938 164.8125 724.441406 164.640625 721.722656 C 163.726562 718.089844 163.726562 718.089844 161.796875 715.089844 C 159.042969 712.972656 156.625 712.003906 153.269531 711.300781 C 149.921875 710.984375 146.5625 710.859375 143.203125 710.707031 L 140.425781 710.558594 L 137.777344 710.433594 L 135.351562 710.316406 C 133.3125 710.210938 133.3125 710.210938 131.476562 711.300781 M 131.476562 753.9375 L 131.476562 781.414062 L 143.792969 781.652344 L 147.632812 781.753906 C 154.824219 781.828125 154.824219 781.828125 161.5625 779.605469 C 164.519531 777.804688 164.519531 777.804688 166.472656 776.023438 C 168.082031 772.53125 168.546875 769.140625 168.429688 765.308594 C 167.644531 762.160156 166.25 759.59375 164.34375 756.957031 C 160.445312 754.214844 155.890625 753.585938 151.230469 753.136719 C 147.664062 752.941406 144.105469 752.886719 140.535156 752.871094 L 138.496094 752.859375 C 134.867188 752.808594 134.867188 752.808594 131.476562 753.9375 M 502.898438 691.402344 C 504.242188 691.304688 505.589844 691.253906 506.9375 691.25 L 509.550781 691.222656 L 512.40625 691.210938 L 515.351562 691.195312 C 517.421875 691.183594 519.496094 691.179688 521.566406 691.175781 C 524.6875 691.164062 527.804688 691.136719 530.921875 691.105469 C 546.75 691.027344 562.574219 691.699219 576.746094 699.585938 C 581.347656 702.410156 585.699219 705.1875 589.117188 709.40625 C 589.890625 711.597656 589.890625 711.597656 590.066406 713.195312 L 591.960938 713.195312 C 597.332031 722.410156 599.589844 731.792969 599.828125 742.417969 C 599.878906 754.320312 598.105469 764.882812 592.910156 775.730469 C 588.574219 782.761719 582.46875 788.972656 575.398438 793.261719 C 566.882812 797.683594 558.289062 800.496094 548.632812 800.472656 L 545.472656 800.472656 L 542.105469 800.457031 L 538.625 800.453125 C 534.96875 800.449219 531.308594 800.433594 527.648438 800.425781 C 525.164062 800.417969 522.679688 800.414062 520.195312 800.410156 C 514.113281 800.398438 508.03125 800.382812 501.949219 800.363281 C 501.925781 786.296875 501.910156 772.230469 501.898438 758.164062 C 501.894531 751.632812 501.886719 745.101562 501.878906 738.570312 C 501.867188 732.273438 501.863281 725.976562 501.859375 719.679688 C 501.855469 717.269531 501.855469 714.863281 501.847656 712.453125 C 501.84375 709.09375 501.839844 705.734375 501.839844 702.371094 L 501.832031 699.320312 L 501.835938 696.566406 L 501.832031 694.152344 L 501.949219 692.347656 Z M 527.53125 710.351562 L 526.585938 711.300781 C 526.46875 713.445312 526.398438 715.59375 526.375 717.742188 L 526.339844 719.78125 C 526.304688 722.019531 526.277344 724.253906 526.25 726.488281 L 526.183594 731.128906 C 526.136719 734.378906 526.09375 737.625 526.054688 740.871094 C 526.003906 745.042969 525.945312 749.214844 525.878906 753.382812 C 525.832031 756.578125 525.789062 759.777344 525.75 762.972656 C 525.726562 764.507812 525.707031 766.046875 525.683594 767.585938 C 525.652344 769.730469 525.625 771.878906 525.601562 774.023438 L 525.550781 777.734375 L 525.636719 780.46875 L 526.585938 781.414062 C 536.710938 782.34375 547.648438 782.46875 557.25 778.871094 C 561.339844 776.828125 564.449219 774.558594 567.328125 770.992188 C 571.742188 764.253906 573.628906 757.261719 574.132812 749.285156 C 574.339844 739.890625 573.269531 731.214844 568.714844 722.878906 C 565.953125 718.6875 562.882812 716.195312 558.417969 713.9375 C 551.414062 711.046875 544.519531 710.542969 537.007812 710.351562 L 534.089844 710.269531 C 530.808594 710.214844 530.808594 710.214844 527.53125 710.351562 M 646.917969 691.402344 C 649.507812 691.15625 649.507812 691.15625 652.773438 691.148438 L 656.328125 691.144531 L 660.0625 691.164062 L 663.777344 691.144531 L 667.339844 691.148438 L 670.609375 691.15625 C 673.484375 691.40625 674.851562 691.742188 677.238281 693.296875 C 678.261719 695.148438 678.261719 695.148438 679.050781 697.457031 L 679.976562 700.101562 L 680.945312 703.007812 L 682 706.054688 C 683.148438 709.378906 684.277344 712.707031 685.410156 716.035156 C 686.605469 719.507812 687.804688 722.980469 689.007812 726.449219 C 689.835938 728.839844 690.660156 731.230469 691.484375 733.621094 C 695.796875 746.136719 700.273438 758.597656 704.773438 771.050781 L 706.976562 777.167969 L 709.011719 782.808594 L 709.941406 785.382812 L 710.800781 787.761719 L 711.585938 789.941406 C 712.164062 791.488281 712.796875 793.015625 713.445312 794.53125 C 714.1875 796.574219 714.1875 796.574219 714.1875 800.363281 L 687.660156 800.363281 L 685.71875 793.972656 C 685.089844 791.9375 684.457031 789.902344 683.820312 787.867188 C 683.378906 786.449219 682.945312 785.03125 682.519531 783.613281 C 681.902344 781.574219 681.265625 779.542969 680.625 777.511719 L 680.058594 775.578125 C 679.457031 773.589844 679.457031 773.589844 678.183594 770.992188 C 674.96875 769.214844 670.613281 769.925781 666.976562 769.953125 L 664.828125 769.957031 C 662.566406 769.960938 660.308594 769.972656 658.050781 769.984375 C 656.515625 769.988281 654.980469 769.996094 653.445312 770 C 649.691406 770.007812 645.933594 770.023438 642.179688 770.042969 L 641.660156 772.414062 C 640.203125 778.9375 638.550781 785.28125 636.375 791.601562 L 635.617188 793.871094 C 633.785156 799.28125 633.785156 799.28125 632.703125 800.363281 C 630.808594 800.449219 628.914062 800.464844 627.015625 800.457031 L 623.527344 800.449219 L 619.855469 800.425781 L 616.167969 800.410156 C 613.152344 800.398438 610.136719 800.382812 607.121094 800.363281 C 607.746094 796.820312 608.714844 793.570312 609.9375 790.183594 L 611.113281 786.910156 L 612.394531 783.367188 C 612.84375 782.125 613.289062 780.882812 613.734375 779.644531 C 614.929688 776.320312 616.128906 772.996094 617.332031 769.675781 C 618.324219 766.933594 619.316406 764.1875 620.304688 761.4375 C 622.296875 755.914062 624.292969 750.390625 626.289062 744.867188 C 628.703125 738.199219 631.109375 731.527344 633.503906 724.851562 C 634.90625 720.953125 636.308594 717.054688 637.71875 713.15625 C 638.363281 711.371094 639.003906 709.585938 639.644531 707.796875 C 640.519531 705.351562 641.402344 702.910156 642.285156 700.46875 L 643.050781 698.320312 C 644.804688 693.511719 644.804688 693.511719 646.917969 691.402344 M 660.179688 715.089844 C 657.316406 721.277344 655.367188 727.703125 653.371094 734.21875 L 652.3125 737.589844 L 651.316406 740.832031 L 650.410156 743.769531 C 649.605469 746.523438 649.605469 746.523438 649.757812 750.148438 L 671.550781 750.148438 C 670.613281 743.589844 668.957031 737.613281 666.992188 731.328125 C 666.398438 729.40625 665.808594 727.488281 665.226562 725.5625 C 664.851562 724.34375 664.472656 723.125 664.09375 721.90625 L 663.058594 718.5625 L 662.078125 716.035156 Z M 249.914062 691.402344 C 252.816406 691.308594 255.699219 691.273438 258.601562 691.277344 L 261.367188 691.273438 C 264.398438 691.273438 267.429688 691.273438 270.460938 691.277344 L 276.75 691.273438 C 281.152344 691.273438 285.554688 691.273438 289.957031 691.277344 C 295.613281 691.28125 301.265625 691.28125 306.917969 691.273438 C 311.25 691.273438 315.585938 691.273438 319.917969 691.273438 C 322.003906 691.273438 324.085938 691.273438 326.171875 691.273438 C 329.085938 691.269531 331.996094 691.273438 334.90625 691.28125 L 337.539062 691.273438 C 343.5 691.292969 343.5 691.292969 345.613281 692.347656 L 345.613281 711.300781 L 310.554688 711.300781 L 309.605469 800.363281 L 284.972656 800.363281 L 284.972656 711.300781 L 248.964844 711.300781 C 247.957031 707.269531 248.085938 703.835938 248.375 699.753906 L 248.5 697.636719 C 248.617188 695.871094 248.789062 694.109375 248.964844 692.347656 Z M 406.25 691.402344 C 409.84375 691.375 413.4375 691.355469 417.03125 691.34375 L 420.128906 691.320312 L 423.089844 691.308594 L 425.828125 691.292969 C 428.042969 691.402344 428.042969 691.402344 429.9375 692.347656 L 429.9375 779.519531 C 447.980469 779.480469 447.980469 779.480469 466.027344 779.433594 L 472.78125 779.425781 L 476.363281 779.414062 L 479.742188 779.414062 L 482.695312 779.40625 L 484.894531 779.519531 L 485.839844 780.46875 C 485.933594 781.867188 485.964844 783.269531 485.96875 784.671875 L 485.972656 787.238281 L 485.960938 789.941406 L 485.972656 792.644531 L 485.96875 795.210938 L 485.964844 797.585938 L 485.839844 799.417969 L 484.894531 800.363281 C 482.414062 800.453125 479.960938 800.484375 477.480469 800.472656 L 475.128906 800.472656 C 472.550781 800.472656 469.96875 800.464844 467.390625 800.457031 L 462.042969 800.453125 C 457.339844 800.449219 452.636719 800.441406 447.933594 800.429688 C 443.140625 800.421875 438.34375 800.414062 433.550781 800.410156 C 424.132812 800.402344 414.71875 800.386719 405.304688 800.363281 C 404.191406 798.140625 404.234375 796.824219 404.230469 794.347656 L 404.21875 791.722656 L 404.21875 788.835938 L 404.210938 785.800781 C 404.203125 782.472656 404.199219 779.148438 404.199219 775.828125 L 404.1875 768.914062 C 404.183594 764.078125 404.179688 759.246094 404.179688 754.410156 C 404.179688 748.207031 404.167969 742.003906 404.152344 735.800781 C 404.140625 731.042969 404.136719 726.28125 404.140625 721.523438 C 404.140625 719.234375 404.136719 716.949219 404.128906 714.660156 C 404.117188 711.464844 404.121094 708.269531 404.128906 705.074219 C 404.121094 704.125 404.117188 703.175781 404.109375 702.195312 L 404.121094 699.554688 L 404.121094 697.265625 C 404.382812 694.953125 405.097656 693.40625 406.25 691.402344 M 212.960938 691.402344 C 214.648438 691.324219 216.339844 691.292969 218.027344 691.308594 L 221.128906 691.320312 L 224.390625 691.34375 L 227.664062 691.355469 C 230.34375 691.367188 233.023438 691.382812 235.703125 691.402344 C 236.835938 693.671875 236.765625 695.058594 236.761719 697.589844 L 236.765625 700.328125 L 236.757812 703.339844 L 236.757812 706.503906 C 236.757812 709.972656 236.75 713.4375 236.742188 716.902344 L 236.738281 724.097656 C 236.734375 729.769531 236.726562 735.445312 236.71875 741.121094 C 236.707031 747.578125 236.699219 754.039062 236.695312 760.496094 C 236.6875 773.785156 236.671875 787.074219 236.648438 800.363281 L 212.015625 800.363281 C 211.105469 797.644531 210.957031 796.011719 210.980469 793.195312 L 211 790.503906 L 211.03125 787.558594 L 211.054688 784.457031 C 211.082031 781.058594 211.113281 777.664062 211.148438 774.269531 L 211.207031 767.214844 C 211.257812 761.65625 211.3125 756.09375 211.367188 750.527344 C 211.410156 746.085938 211.449219 741.640625 211.484375 737.199219 C 211.535156 731.082031 211.589844 724.96875 211.648438 718.851562 C 211.667969 716.515625 211.691406 714.175781 211.710938 711.839844 C 211.738281 708.582031 211.769531 705.324219 211.804688 702.066406 L 211.824219 699.109375 L 211.859375 696.4375 L 211.878906 694.101562 L 212.015625 692.347656 Z M 358.875 691.402344 C 360.472656 691.308594 362.070312 691.277344 363.671875 691.277344 L 366.613281 691.273438 L 369.714844 691.285156 L 372.800781 691.273438 L 375.75 691.277344 L 378.46875 691.28125 C 380.667969 691.402344 380.667969 691.402344 382.5625 692.347656 L 382.5625 800.363281 L 357.929688 800.363281 C 357.90625 786.296875 357.890625 772.230469 357.878906 758.164062 C 357.875 751.632812 357.867188 745.101562 357.859375 738.570312 C 357.847656 732.273438 357.84375 725.976562 357.839844 719.679688 C 357.835938 717.269531 357.835938 714.863281 357.828125 712.453125 C 357.824219 709.09375 357.820312 705.734375 357.820312 702.371094 L 357.8125 699.320312 L 357.816406 696.566406 L 357.8125 694.152344 L 357.929688 692.347656 Z M 358.875 691.402344 " fill-opacity="1" fill-rule="nonzero"/></g></svg>